# xmcd
#
# Track frame offsets: 
#        150
#        13335
#        29267
#        44585
#        59160
#        75557
#        91882
#        103477
#        116057
#        130140
#        144385
#        158320
#        169982
#        186005
#        197505
#
# Disc length: 2800 seconds
#
# Revision: 5
# Processed by: cddbd v1.5.2PL0 Copyright (c) Steve Scherf et al.
# Submitted via: ExactAudioCopy v0.99pb5
#
DISCID=ce0aee0f
DTITLE=Various Artist - Classic Country - TL 626-13 - '70s Legends - CD 2
DYEAR=2000
DGENRE=Country
TTITLE0=Tammy Wynette - I'll see him through
TTITLE1=Charley Pride - Me and Bobby McGee
TTITLE2=Dolly Parton - You're the only one
TTITLE3=Dr. Hook - If not you
TTITLE4=Cal Smith - Country bumpkin
TTITLE5=Ronnie Milsap - It was almost like a song
TTITLE6=Connie Smith - ('Til) I kissed you
TTITLE7=Sonny James - Don't keep me hangin' on
TTITLE8=John Conlee - Lady lay down
TTITLE9=Tom T. Hall - That song is driving me crazy
TTITLE10=Barbara Fairchild - Teddy bear song
TTITLE11=Billy 'Crash' Craddock - Rub it in
TTITLE12=Marty Robbins - My woman, my woman, my wife
TTITLE13=Loretta Lynn - Love is the foundation
TTITLE14=Waylon Jennings - I'm a ramblin' man
EXTD=
EXTT0=
EXTT1=
EXTT2=
EXTT3=
EXTT4=
EXTT5=
EXTT6=
EXTT7=
EXTT8=
EXTT9=
EXTT10=
EXTT11=
EXTT12=
EXTT13=
EXTT14=
PLAYORDER=
